<svg width="27" height="27" viewBox="0 0 27 27" fill="none" xmlns="http://www.w3.org/2000/svg">
<path d="M23.2428 1.85404C21.8819 0.495584 19.6782 0.495584 18.3174 1.85404L17.0844 3.09373L3.95987 16.2113L3.93198 16.2394C3.92522 16.2462 3.92522 16.2534 3.91803 16.2534C3.90408 16.2743 3.88317 16.295 3.86944 16.3159C3.86944 16.3229 3.86225 16.3229 3.86225 16.3298C3.8483 16.3508 3.84154 16.3647 3.82738 16.3856C3.82063 16.3926 3.82063 16.3994 3.81365 16.4065C3.80668 16.4275 3.79971 16.4414 3.79251 16.4623C3.79251 16.4691 3.78576 16.4691 3.78576 16.4763L0.873819 25.2328C0.788398 25.4821 0.853335 25.7582 1.04096 25.9432C1.17279 26.0733 1.35061 26.1461 1.53561 26.1454C1.61123 26.1441 1.68619 26.1323 1.75854 26.1105L10.5083 23.1916C10.5151 23.1916 10.5151 23.1916 10.5223 23.1849C10.5443 23.1783 10.5654 23.169 10.5848 23.1568C10.5902 23.1561 10.595 23.1537 10.599 23.15C10.6197 23.1361 10.6475 23.1219 10.6685 23.108C10.6892 23.0942 10.7103 23.0733 10.7312 23.0594C10.7382 23.0522 10.745 23.0522 10.745 23.0454C10.7521 23.0384 10.7661 23.0317 10.7731 23.0175L25.1305 8.66004C26.489 7.29919 26.489 5.09546 25.1305 3.73483L23.2428 1.85404ZM10.2854 21.5545L5.43687 16.7062L17.5721 4.57095L22.4206 9.41924L10.2854 21.5545ZM4.75394 17.9949L8.98968 22.2304L2.62931 24.3481L4.75394 17.9949ZM24.1484 7.68467L23.4099 8.43015L18.5612 3.58142L19.3069 2.83616C20.1225 2.02118 21.4446 2.02118 22.2604 2.83616L24.1552 4.73089C24.9647 5.55024 24.9617 6.86925 24.1484 7.68467Z" fill="#444444"/>
</svg>
