<svg width="18" height="22" viewBox="0 0 18 22" fill="none" xmlns="http://www.w3.org/2000/svg">
<path d="M15.7516 2.45411H12.203V1.85479C12.2031 0.832023 11.371 0 10.3483 0H7.65173C6.62901 0 5.79695 0.832023 5.79695 1.85479V2.45415H2.24845C1.00865 2.45415 0 3.4628 0 4.7026V5.98997C0 6.22331 0.189223 6.41253 0.422561 6.41253H1.62251L2.69404 19.1361C2.75159 19.8195 3.06129 20.4514 3.56616 20.9155C4.07099 21.3795 4.72664 21.6351 5.41242 21.6351H12.5876C13.2734 21.6351 13.929 21.3795 14.4339 20.9155C14.9387 20.4514 15.2484 19.8194 15.306 19.1361L16.3775 6.41253H17.5774C17.8108 6.41253 18 6.22331 18 5.98997V4.7026C18 3.46276 16.9913 2.45411 15.7516 2.45411ZM6.64207 1.85479C6.64207 1.29807 7.09501 0.845122 7.65173 0.845122H10.3483C10.905 0.845122 11.3579 1.29807 11.3579 1.85479V2.45415H6.64207V1.85479ZM17.1549 5.56737H10.872C10.6386 5.56737 10.4494 5.75659 10.4494 5.98993C10.4494 6.22327 10.6386 6.41249 10.872 6.41249H15.5294L14.4638 19.0652C14.3824 20.0324 13.5583 20.79 12.5876 20.79H5.41242C4.44179 20.79 3.61767 20.0323 3.53624 19.0652L2.47067 6.41249H7.15362C7.38696 6.41249 7.57618 6.22327 7.57618 5.98993C7.57618 5.75659 7.38696 5.56737 7.15362 5.56737H0.845122V4.70255C0.845122 3.92872 1.47461 3.29923 2.24845 3.29923H15.7516C16.5254 3.29923 17.1549 3.92872 17.1549 4.70255V5.56737H17.1549Z" fill="#444444"/>
<path d="M6.58967 9.69426C6.42462 9.5293 6.15714 9.5293 5.99204 9.69426C5.82703 9.85927 5.82703 10.1268 5.99204 10.2919L8.40237 12.7022L5.99204 15.1126C5.82703 15.2776 5.82703 15.5451 5.99204 15.7102C6.07457 15.7927 6.1827 15.8339 6.29084 15.8339C6.39897 15.8339 6.5071 15.7927 6.58963 15.7102L9 13.2998L11.4103 15.7101C11.4929 15.7926 11.601 15.8339 11.7091 15.8339C11.8173 15.8339 11.9254 15.7926 12.0079 15.7101C12.1729 15.5451 12.1729 15.2776 12.0079 15.1125L9.59759 12.7022L12.0079 10.2918C12.1729 10.1268 12.1729 9.85927 12.0079 9.69422C11.8429 9.52925 11.5754 9.52925 11.4103 9.69422L9 12.1046L6.58967 9.69426Z" fill="#444444"/>
<path d="M8.65222 6.15236C8.74083 6.36487 8.99061 6.46894 9.20367 6.38097C9.41664 6.29303 9.52008 6.04165 9.43227 5.82906C9.34438 5.61622 9.09317 5.51243 8.88041 5.60045C8.66701 5.68877 8.56505 5.93956 8.65222 6.15236Z" fill="#444444"/>
</svg>
